<?xml version="1.0" standalone="no"?><!-- Generator: Gravit.io --><svg xmlns="http://www.w3.org/2000/svg" xmlns:xlink="http://www.w3.org/1999/xlink" style="isolation:isolate" viewBox="-86.793 -244.419 227.448 481.633" width="227.448px" height="481.633px"><g><path d=" M -73.552 -137.953 C -80.174 -131.483 -80.387 -120.933 -73.984 -114.381 C -71.775 -112.12 -67.983 -110.84 -63.992 -109.599 C -60.503 -108.508 -56.586 -107.296 -54.942 -105.613 C -53.536 -104.174 -51.108 -100.05 -48.57 -95.573 C -44.303 -88.03 -38.997 -78.573 -33.015 -72.451 C -27.111 -66.408 -18.019 -61.027 -10.73 -56.687 C -6.171 -53.963 -1.921 -51.354 -0.367 -49.764 C 1.459 -47.895 2.639 -43.922 3.641 -40.381 C 4.72 -36.495 5.765 -32.762 7.952 -30.524 C 14.357 -23.969 24.908 -23.938 31.53 -30.408 C 33.32 -32.156 35.129 -35.546 37.899 -40.855 C 40.77 -46.359 44.38 -53.129 47.732 -56.404 C 50.421 -59.031 53.289 -59.702 56.639 -60.418 C 59.999 -61.138 63.765 -61.905 66.976 -65.042 C 70.039 -68.034 71.488 -72.053 72.88 -75.971 C 74.278 -79.919 75.648 -83.681 78.459 -86.428 C 81.13 -89.037 84.016 -89.725 87.366 -90.441 C 90.737 -91.151 94.492 -91.928 97.703 -95.065 C 100.966 -98.253 102.878 -103.175 104.735 -107.882 C 106.11 -111.378 107.607 -114.907 109.186 -116.451 C 111.158 -118.378 117.664 -121.801 122.887 -124.523 C 129.504 -127.955 133.634 -130.173 135.554 -132.049 C 142.173 -138.517 142.387 -149.066 135.984 -155.619 C 133.775 -157.88 129.982 -159.159 125.992 -160.4 C 122.503 -161.491 118.583 -162.706 116.942 -164.386 C 115.506 -165.856 112.876 -170.263 110.181 -174.983 C 105.878 -182.511 100.567 -191.866 95.015 -197.548 C 89.533 -203.159 80.457 -208.626 73.199 -212.991 C 68.41 -215.874 63.968 -218.596 62.367 -220.235 C 60.54 -222.104 59.361 -226.077 58.364 -229.618 C 57.267 -233.502 56.235 -237.238 54.043 -239.481 C 47.643 -246.031 37.092 -246.062 30.47 -239.592 C 28.67 -237.833 26.851 -234.474 24.101 -229.144 C 21.25 -223.62 17.687 -216.781 14.345 -213.516 C 11.664 -210.896 8.811 -210.195 5.438 -209.502 C 2.06 -208.805 -1.755 -208.105 -4.974 -204.96 C -8.047 -201.958 -9.497 -197.822 -10.877 -193.871 C -12.257 -189.905 -13.565 -186.239 -16.377 -183.492 C -19.04 -180.89 -21.845 -180.262 -25.205 -179.562 C -28.587 -178.859 -32.48 -178.084 -35.701 -174.936 C -38.974 -171.739 -40.896 -166.847 -42.733 -162.119 C -44.1 -158.616 -45.534 -155.003 -47.104 -153.469 C -49.066 -151.552 -55.564 -148.101 -60.808 -145.4 C -67.442 -141.986 -71.621 -139.839 -73.552 -137.953 Z  M -39.993 -125.696 L 41.946 -205.758 L 101.993 -144.304 L 20.054 -64.241 L -39.993 -125.696 Z " fill="rgb(0,0,0)"/><path d=" M 40.322 -170.532 L 38.54 -168.791 C 37.877 -168.144 37.884 -166.266 38.488 -165.648 L 61.933 -141.654 C 62.536 -141.036 64.294 -141.107 64.957 -141.754 L 66.739 -143.496 L 71.142 -138.99 L 55.37 -123.58 L 50.968 -128.086 L 53.221 -130.287 L 31.206 -152.818 L 50.864 -119.177 L 44.207 -112.672 L 10.929 -133.005 L 32.943 -110.474 L 35.196 -112.676 L 39.599 -108.17 L 26.081 -94.961 L 21.678 -99.467 L 23.931 -101.669 C 24.643 -102.364 24.757 -104.123 24.154 -104.74 L 0.709 -128.735 C 0.105 -129.352 -1.772 -129.403 -2.486 -128.705 L -4.739 -126.504 L -9.142 -131.01 L 8.882 -148.621 L 33.201 -132.747 L 17.894 -157.427 L 35.919 -175.038 L 40.322 -170.532 Z " fill="rgb(0,0,0)"/></g><g><g><path d=" M -48.669 16.196 C -56.524 24.497 -62.165 34.155 -64.91 44.637 C -63.441 44.483 -61.949 44.404 -60.439 44.404 C -37.037 44.404 -18.066 63.375 -18.066 86.777 C -18.066 98.489 -22.817 109.092 -30.498 116.762 C -23.679 120.856 -16.112 124.226 -7.983 126.725 C -6.193 109.553 8.327 96.166 25.973 96.166 C 43.619 96.166 58.138 109.553 59.928 126.725 C 68.481 124.095 76.413 120.502 83.505 116.115 C 76.197 108.501 71.706 98.164 71.706 86.777 C 71.706 63.375 90.677 44.404 114.079 44.404 C 114.999 44.404 115.912 44.433 116.817 44.491 C 114.058 34.067 108.434 24.462 100.618 16.201 L 113.608 5.301 C 113.702 5.222 113.795 5.143 113.888 5.063 C 126.872 19.878 134.529 38.103 134.529 57.81 C 134.529 105.096 90.444 143.854 34.454 147.437 L 34.454 184.878 C 42.346 176.866 53.161 169.264 65.925 163.312 C 97.763 148.466 129.671 149.508 137.193 165.639 C 144.715 181.77 125.003 206.882 93.165 221.728 C 91.699 222.412 90.232 223.062 88.768 223.679 C 72.416 231.872 47.348 237.214 25.973 237.214 C 4.472 237.214 -20.764 231.809 -37.109 223.535 C -38.46 222.961 -39.812 222.359 -41.165 221.728 C -73.003 206.882 -92.715 181.77 -85.193 165.639 C -77.671 149.508 -45.763 148.466 -13.925 163.312 C -1.191 169.25 9.604 176.831 17.492 184.822 L 17.492 147.437 C -38.498 143.854 -82.584 105.096 -82.584 57.81 C -82.584 38.102 -74.926 19.876 -61.941 5.06 L -62.233 4.815 C -73.739 -4.84 -75.239 -21.993 -65.585 -33.499 C -56.169 -44.721 -39.618 -46.426 -28.132 -37.545 L -12.885 -39.688 L -12.349 -24.33 L -11.46 -23.584 L 3.87 -25.629 L 4.519 -10.177 L 5.408 -9.43 L 20.626 -11.569 L 21.162 3.789 L 25.194 7.172 L 29.225 3.789 L 29.762 -11.569 L 44.979 -9.43 L 45.868 -10.177 L 46.517 -25.629 L 61.847 -23.584 L 62.736 -24.33 L 63.273 -39.688 L 78.52 -37.545 C 90.006 -46.426 106.556 -44.721 115.972 -33.499 C 125.627 -21.993 124.126 -4.84 112.62 4.815 L 46.777 60.063 C 46.662 60.206 46.545 60.349 46.427 60.49 C 40.959 67.007 33.085 70.314 25.194 70.202 C 17.303 70.314 9.429 67.007 3.96 60.49 C 3.842 60.349 3.725 60.206 3.61 60.063 L -48.669 16.196 Z  M 25.104 26.472 L -36.862 -25.646 C -36.87 -25.652 -36.877 -25.659 -36.884 -25.665 C -42.228 -30.138 -50.187 -29.433 -54.66 -24.089 C -59.147 -18.729 -58.449 -10.749 -53.099 -6.25 L 16.555 52.335 C 16.563 52.341 16.57 52.348 16.578 52.354 C 19.059 54.431 22.105 55.392 25.104 55.29 C 28.102 55.392 31.148 54.431 33.63 52.354 C 33.637 52.348 33.645 52.341 33.652 52.335 L 103.307 -6.25 C 108.656 -10.749 109.354 -18.729 104.867 -24.089 C 100.394 -29.433 92.436 -30.138 87.092 -25.665 C 87.084 -25.659 87.077 -25.652 87.07 -25.646 L 25.104 26.472 Z " fill="rgb(0,0,0)"/></g></g></svg>