<?xml version="1.0" standalone="no"?><!-- Generator: Gravit.io --><svg xmlns="http://www.w3.org/2000/svg" xmlns:xlink="http://www.w3.org/1999/xlink" style="isolation:isolate" viewBox="-246 -302.581 554 554" width="554px" height="554px"><defs><clipPath id="_clipPath_FJD9jDcv1QemIPvegf68wrXp9K7GDlM7"><rect x="-246" y="-302.581" width="554" height="554"/></clipPath></defs><g clip-path="url(#_clipPath_FJD9jDcv1QemIPvegf68wrXp9K7GDlM7)"><g><rect x="-246" y="-302.581" width="554" height="554" transform="matrix(1,0,0,1,0,0)" fill="none"/><g><g><path d=" M -84.581 -180.118 C -92.197 -172.676 -92.443 -160.542 -85.078 -153.004 C -82.537 -150.404 -78.175 -148.932 -73.584 -147.505 C -69.572 -146.25 -65.065 -144.855 -63.175 -142.92 C -61.557 -141.265 -58.764 -136.521 -55.845 -131.37 C -50.937 -122.694 -44.834 -111.817 -37.953 -104.775 C -31.161 -97.824 -20.703 -91.634 -12.319 -86.642 C -7.076 -83.509 -2.187 -80.508 -0.4 -78.679 C 1.701 -76.529 3.058 -71.959 4.21 -67.886 C 5.451 -63.416 6.654 -59.122 9.169 -56.548 C 16.536 -49.008 28.673 -48.972 36.29 -56.414 C 38.349 -58.426 40.429 -62.324 43.616 -68.431 C 46.919 -74.762 51.071 -82.55 54.926 -86.317 C 58.019 -89.339 61.319 -90.11 65.172 -90.933 C 69.037 -91.762 73.369 -92.644 77.062 -96.252 C 80.585 -99.694 82.251 -104.317 83.853 -108.823 C 85.46 -113.365 87.036 -117.691 90.27 -120.851 C 93.342 -123.853 96.663 -124.644 100.516 -125.467 C 104.392 -126.285 108.713 -127.178 112.406 -130.787 C 116.158 -134.453 118.358 -140.115 120.495 -145.53 C 122.076 -149.55 123.797 -153.61 125.614 -155.386 C 127.882 -157.602 135.365 -161.539 141.374 -164.67 C 148.985 -168.618 153.735 -171.169 155.944 -173.327 C 163.558 -180.767 163.803 -192.901 156.439 -200.438 C 153.897 -203.039 149.535 -204.511 144.945 -205.938 C 140.932 -207.193 136.423 -208.591 134.535 -210.523 C 132.883 -212.214 129.858 -217.283 126.758 -222.712 C 121.809 -231.372 115.699 -242.132 109.314 -248.668 C 103.008 -255.121 92.569 -261.41 84.22 -266.431 C 78.711 -269.747 73.602 -272.879 71.76 -274.764 C 69.659 -276.914 68.303 -281.484 67.156 -285.556 C 65.894 -290.023 64.707 -294.321 62.186 -296.901 C 54.824 -304.435 42.687 -304.471 35.071 -297.029 C 33 -295.006 30.908 -291.142 27.744 -285.011 C 24.465 -278.657 20.367 -270.79 16.523 -267.035 C 13.439 -264.021 10.157 -263.215 6.278 -262.418 C 2.392 -261.616 -1.997 -260.811 -5.699 -257.193 C -9.233 -253.74 -10.902 -248.983 -12.489 -244.439 C -14.076 -239.877 -15.581 -235.66 -18.815 -232.5 C -21.878 -229.507 -25.104 -228.784 -28.969 -227.979 C -32.86 -227.171 -37.338 -226.279 -41.043 -222.659 C -44.807 -218.981 -47.018 -213.354 -49.131 -207.916 C -50.704 -203.886 -52.354 -199.73 -54.159 -197.966 C -56.415 -195.761 -63.89 -191.791 -69.922 -188.684 C -77.553 -184.757 -82.36 -182.288 -84.581 -180.118 Z  M -45.98 -166.019 L 48.271 -258.111 L 117.34 -187.423 L 23.089 -95.331 L -45.98 -166.019 Z " fill="rgb(0,0,0)"/><path d=" M 46.403 -217.593 L 44.353 -215.59 C 43.591 -214.845 43.599 -212.685 44.293 -211.975 L 71.261 -184.375 C 71.955 -183.665 73.977 -183.747 74.739 -184.491 L 76.789 -186.494 L 81.853 -181.311 L 63.712 -163.585 L 58.648 -168.769 L 61.24 -171.301 L 35.918 -197.216 L 58.529 -158.521 L 50.871 -151.038 L 12.593 -174.427 L 37.916 -148.511 L 40.507 -151.043 L 45.571 -145.86 L 30.022 -130.667 L 24.958 -135.85 L 27.549 -138.382 C 28.368 -139.182 28.499 -141.205 27.805 -141.915 L 0.837 -169.515 C 0.144 -170.225 -2.016 -170.284 -2.837 -169.481 L -5.429 -166.949 L -10.493 -172.132 L 10.239 -192.389 L 38.212 -174.13 L 20.606 -202.518 L 41.338 -222.776 L 46.403 -217.593 Z " fill="rgb(0,0,0)"/></g><g><g><path d=" M -55.959 -2.808 C -64.994 6.74 -71.482 17.849 -74.64 29.906 C -72.95 29.729 -71.235 29.638 -69.498 29.638 C -42.579 29.638 -20.757 51.459 -20.757 78.378 C -20.757 91.85 -26.223 104.045 -35.058 112.868 C -27.215 117.577 -18.51 121.453 -9.16 124.328 C -7.101 104.576 9.6 89.178 29.898 89.178 C 50.195 89.178 66.896 104.576 68.955 124.328 C 78.793 121.303 87.916 117.17 96.074 112.124 C 87.668 103.366 82.502 91.475 82.502 78.378 C 82.502 51.459 104.324 29.638 131.242 29.638 C 132.3 29.638 133.35 29.671 134.391 29.738 C 131.218 17.748 124.749 6.7 115.759 -2.803 L 130.7 -15.34 C 130.808 -15.431 130.916 -15.522 131.023 -15.614 C 145.957 1.427 154.765 22.391 154.765 45.058 C 154.765 99.449 104.056 144.031 39.653 148.153 L 39.653 191.218 C 48.731 182.003 61.171 173.259 75.853 166.413 C 112.475 149.336 149.176 150.534 157.829 169.089 C 166.481 187.644 143.807 216.529 107.186 233.606 C 105.499 234.393 103.812 235.14 102.128 235.85 C 83.319 245.274 54.485 251.419 29.898 251.419 C 5.166 251.419 -23.861 245.202 -42.662 235.684 C -44.216 235.024 -45.772 234.332 -47.328 233.606 C -83.949 216.529 -106.623 187.644 -97.971 169.089 C -89.318 150.534 -52.616 149.336 -15.995 166.413 C -1.347 173.243 11.069 181.963 20.142 191.155 L 20.142 148.153 C -44.26 144.031 -94.969 99.449 -94.969 45.058 C -94.969 22.39 -86.161 1.425 -71.225 -15.617 L -71.561 -15.899 C -84.796 -27.004 -86.522 -46.736 -75.417 -59.97 C -64.586 -72.878 -45.549 -74.839 -32.337 -64.624 L -14.799 -67.089 L -14.182 -49.424 L -13.16 -48.566 L 4.474 -50.917 L 5.22 -33.143 L 6.243 -32.285 L 23.747 -34.745 L 24.364 -17.08 L 29.001 -13.188 L 33.639 -17.08 L 34.256 -34.745 L 51.76 -32.285 L 52.783 -33.143 L 53.529 -50.917 L 71.162 -48.566 L 72.185 -49.424 L 72.802 -67.089 L 90.34 -64.624 C 103.552 -74.839 122.589 -72.878 133.42 -59.97 C 144.525 -46.736 142.799 -27.004 129.564 -15.899 L 53.828 47.65 C 53.696 47.815 53.561 47.978 53.425 48.141 C 47.135 55.637 38.078 59.441 29.001 59.313 C 19.925 59.441 10.868 55.637 4.578 48.141 C 4.442 47.978 4.307 47.815 4.175 47.65 L -55.959 -2.808 Z  M 28.898 9.012 L -42.378 -50.937 C -42.387 -50.944 -42.395 -50.951 -42.404 -50.959 C -48.551 -56.104 -57.705 -55.293 -62.85 -49.146 C -68.011 -42.981 -67.208 -33.802 -61.055 -28.626 L 19.065 38.761 C 19.074 38.768 19.082 38.775 19.091 38.783 C 21.946 41.172 25.449 42.277 28.898 42.159 C 32.347 42.277 35.851 41.172 38.705 38.783 C 38.714 38.775 38.722 38.768 38.731 38.761 L 118.851 -28.626 C 125.004 -33.802 125.807 -42.981 120.646 -49.146 C 115.501 -55.293 106.347 -56.104 100.2 -50.959 C 100.192 -50.951 100.183 -50.944 100.174 -50.937 L 28.898 9.012 Z " fill="rgb(0,0,0)"/></g></g></g></g></g></svg>